<svg width="21" height="15" viewBox="0 0 21 15" fill="none" xmlns="http://www.w3.org/2000/svg">
<path d="M10.5264 8.9004H10.5308C10.6892 8.9004 10.8457 8.85445 10.9723 8.7708L11.0067 8.74873C11.0142 8.74386 11.022 8.73943 11.0298 8.73418L11.4299 8.40323L20.978 0.523973C20.9582 0.496694 20.9245 0.478027 20.8887 0.478027H0.110936C0.0851667 0.478027 0.06125 0.487361 0.0422059 0.503042L10.0318 8.73676C10.1577 8.841 10.3373 8.9004 10.5264 8.9004ZM0 1.59449V13.2739L7.15613 7.49299L0 1.59449ZM13.8514 7.53221L21 13.2768V1.63334L13.8514 7.53221ZM11.5785 9.40725C11.2935 9.64106 10.9208 9.76994 10.5293 9.76994C10.1364 9.76994 9.76401 9.64182 9.47978 9.4091L7.84079 8.05735L0 14.3903V14.4105C0 14.4706 0.0515392 14.5218 0.112412 14.5218H20.8891C20.9488 14.5218 21 14.4706 21 14.4101V14.3914L13.1659 8.09698L11.5785 9.40725Z" fill="#464646"/>
</svg>
