<svg width="14" height="18" viewBox="0 0 14 18" fill="none" xmlns="http://www.w3.org/2000/svg">
<path d="M6.99956 0C3.34588 0 0.373047 2.97283 0.373047 6.62688C0.373047 7.58 0.568128 8.49001 0.952581 9.33186C2.60939 12.9574 5.78596 16.7851 6.72029 17.8718C6.79029 17.953 6.89234 17.9998 6.99974 17.9998C7.10714 17.9998 7.20919 17.953 7.27919 17.8718C8.21315 16.7853 11.3897 12.9577 13.0471 9.33186C13.4317 8.49001 13.6266 7.58 13.6266 6.62688C13.6262 2.97283 10.6534 0 6.99956 0ZM6.99956 10.0689C5.10161 10.0689 3.55735 8.52464 3.55735 6.62669C3.55735 4.72856 5.10161 3.18431 6.99956 3.18431C8.8975 3.18431 10.4418 4.72856 10.4418 6.62669C10.4419 8.52464 8.89769 10.0689 6.99956 10.0689Z" fill="#464646"/>
</svg>
