<svg width="17" height="17" viewBox="0 0 17 17" fill="none" xmlns="http://www.w3.org/2000/svg">
<path d="M16.6189 13.4351L13.9935 10.8094C13.4706 10.2886 12.6046 10.3044 12.0634 10.8457L10.7408 12.1681C10.6572 12.122 10.5707 12.0739 10.4798 12.0229C9.6445 11.5601 8.50131 10.9258 7.29834 9.72191C6.0918 8.51552 5.45688 7.37057 4.99266 6.53478C4.94368 6.44623 4.89674 6.36086 4.85039 6.27978L5.7381 5.39339L6.17454 4.95642C6.71651 4.4143 6.73146 3.54857 6.20975 3.02623L3.58437 0.400257C3.06266 -0.121351 2.19629 -0.105527 1.65432 0.436594L0.914395 1.18077L0.934615 1.20084C0.686509 1.51742 0.479184 1.88254 0.324899 2.27629C0.182678 2.65109 0.0941312 3.00874 0.0536431 3.36713C-0.293022 6.24105 1.02028 8.86761 4.58441 12.4318C9.51112 17.3582 13.4814 16.986 13.6527 16.9678C14.0257 16.9232 14.3832 16.8341 14.7466 16.693C15.1369 16.5405 15.5018 16.3335 15.8181 16.0859L15.8343 16.1003L16.5839 15.3663C17.1248 14.8243 17.1403 13.9582 16.6189 13.4351Z" fill="#464646"/>
</svg>
