<svg width="31" height="23" viewBox="0 0 31 23" fill="none" xmlns="http://www.w3.org/2000/svg">
<path d="M19.5439 14.4756C19.5439 10.4183 20.5182 7.24186 22.4668 4.94629C24.4421 2.65072 27.2048 1.14258 30.7549 0.421875V4.58594C28.0589 5.41341 26.2438 6.9082 25.3096 9.07031C24.7757 10.2181 24.5622 11.3258 24.6689 12.3936H30.9551V22.9238H19.5439V14.4756ZM0.56543 14.4756C0.56543 10.4717 1.51302 7.30859 3.4082 4.98633C5.33008 2.66406 8.11947 1.14258 11.7764 0.421875V4.58594C9.05371 5.4401 7.22526 6.9082 6.29102 8.99023C5.81055 10.0846 5.61035 11.2191 5.69043 12.3936H11.9766V22.9238H0.56543V14.4756Z" fill="#464646"/>
</svg>
